<mxfile host="Electron" agent="Mozilla/5.0 (Windows NT 10.0; Win64; x64) AppleWebKit/537.36 (KHTML, like Gecko) draw.io/27.0.9 Chrome/134.0.6998.205 Electron/35.4.0 Safari/537.36" version="27.0.9">
  <diagram name="Page-1" id="I2cS03Nr3PTWDbWtrgwm">
    <mxGraphModel dx="2066" dy="1209" grid="1" gridSize="10" guides="1" tooltips="1" connect="1" arrows="1" fold="1" page="1" pageScale="1" pageWidth="850" pageHeight="1100" math="0" shadow="0">
      <root>
        <mxCell id="0" />
        <mxCell id="1" parent="0" />
        <mxCell id="GVsS5v2347t9DQLm5EYn-24" value="&amp;lt;&amp;lt;requirement&amp;gt;&amp;gt;&lt;br&gt;Traffic Signal System," style="shape=rect;html=1;whiteSpace=wrap;align=center;strokeWidth=3;fontFamily=Times New Roman;fontSize=13;" vertex="1" parent="1">
          <mxGeometry x="590" y="530" width="120" height="60" as="geometry" />
        </mxCell>
        <mxCell id="GVsS5v2347t9DQLm5EYn-25" value="&amp;lt;&amp;lt;requirement&amp;gt;&amp;gt;&lt;br&gt;Signal Lights" style="shape=rect;html=1;whiteSpace=wrap;align=center;strokeWidth=3;fontFamily=Times New Roman;fontSize=13;" vertex="1" parent="1">
          <mxGeometry x="200" y="650" width="120" height="60" as="geometry" />
        </mxCell>
        <mxCell id="GVsS5v2347t9DQLm5EYn-26" value="&amp;lt;&amp;lt;requirement&amp;gt;&amp;gt;&lt;br&gt;Green Light Rotation" style="shape=rect;html=1;whiteSpace=wrap;align=center;strokeWidth=3;fontFamily=Times New Roman;fontSize=13;" vertex="1" parent="1">
          <mxGeometry x="590" y="650" width="120" height="60" as="geometry" />
        </mxCell>
        <mxCell id="GVsS5v2347t9DQLm5EYn-27" value="" style="rounded=0;html=1;labelBackgroundColor=none;endArrow=none;edgeStyle=elbowEdgeStyle;elbow=vertical;startArrow=sysMLPackCont;startSize=12;strokeWidth=3;fontFamily=Times New Roman;fontSize=13;" edge="1" source="GVsS5v2347t9DQLm5EYn-24" target="GVsS5v2347t9DQLm5EYn-25" parent="1">
          <mxGeometry relative="1" as="geometry" />
        </mxCell>
        <mxCell id="GVsS5v2347t9DQLm5EYn-28" value="" style="rounded=0;html=1;labelBackgroundColor=none;endArrow=none;edgeStyle=elbowEdgeStyle;elbow=vertical;startArrow=sysMLPackCont;startSize=12;strokeWidth=3;fontFamily=Times New Roman;fontSize=13;" edge="1" source="GVsS5v2347t9DQLm5EYn-24" target="GVsS5v2347t9DQLm5EYn-26" parent="1">
          <mxGeometry relative="1" as="geometry" />
        </mxCell>
        <mxCell id="GVsS5v2347t9DQLm5EYn-35" value="&amp;lt;&amp;lt;requirement&amp;gt;&amp;gt;&lt;br&gt;Default Operation" style="shape=rect;html=1;whiteSpace=wrap;align=center;strokeWidth=3;fontFamily=Times New Roman;fontSize=13;" vertex="1" parent="1">
          <mxGeometry x="110" y="770" width="120" height="60" as="geometry" />
        </mxCell>
        <mxCell id="GVsS5v2347t9DQLm5EYn-36" value="&amp;lt;&amp;lt;requirement&amp;gt;&amp;gt;&lt;br&gt;Green Light" style="shape=rect;html=1;whiteSpace=wrap;align=center;fontFamily=Times New Roman;fontSize=13;strokeWidth=3;" vertex="1" parent="1">
          <mxGeometry x="290" y="770" width="120" height="60" as="geometry" />
        </mxCell>
        <mxCell id="GVsS5v2347t9DQLm5EYn-37" value="" style="rounded=0;html=1;labelBackgroundColor=none;endArrow=none;edgeStyle=elbowEdgeStyle;elbow=vertical;startArrow=sysMLPackCont;startSize=12;fontFamily=Times New Roman;fontSize=13;strokeWidth=3;" edge="1" target="GVsS5v2347t9DQLm5EYn-35" parent="1">
          <mxGeometry relative="1" as="geometry">
            <mxPoint x="260" y="710" as="sourcePoint" />
          </mxGeometry>
        </mxCell>
        <mxCell id="GVsS5v2347t9DQLm5EYn-38" value="" style="rounded=0;html=1;labelBackgroundColor=none;endArrow=none;edgeStyle=elbowEdgeStyle;elbow=vertical;startArrow=sysMLPackCont;startSize=12;fontFamily=Times New Roman;fontSize=13;strokeWidth=3;" edge="1" target="GVsS5v2347t9DQLm5EYn-36" parent="1">
          <mxGeometry relative="1" as="geometry">
            <mxPoint x="260" y="710" as="sourcePoint" />
            <Array as="points">
              <mxPoint x="250" y="740" />
            </Array>
          </mxGeometry>
        </mxCell>
        <mxCell id="GVsS5v2347t9DQLm5EYn-39" value="&amp;lt;&amp;lt;requirement&amp;gt;&amp;gt;&lt;br&gt;Default Rotation Policy" style="shape=rect;html=1;whiteSpace=wrap;align=center;fontFamily=Times New Roman;fontSize=13;strokeWidth=3;" vertex="1" parent="1">
          <mxGeometry x="500" y="770" width="120" height="60" as="geometry" />
        </mxCell>
        <mxCell id="GVsS5v2347t9DQLm5EYn-40" value="&amp;lt;&amp;lt;requirement&amp;gt;&amp;gt;&lt;br&gt;Default Rotation Period" style="shape=rect;html=1;whiteSpace=wrap;align=center;fontFamily=Times New Roman;fontSize=13;strokeWidth=3;" vertex="1" parent="1">
          <mxGeometry x="680" y="770" width="120" height="60" as="geometry" />
        </mxCell>
        <mxCell id="GVsS5v2347t9DQLm5EYn-41" value="" style="rounded=0;html=1;labelBackgroundColor=none;endArrow=none;edgeStyle=elbowEdgeStyle;elbow=vertical;startArrow=sysMLPackCont;startSize=12;fontFamily=Times New Roman;fontSize=13;strokeWidth=3;" edge="1" parent="1" target="GVsS5v2347t9DQLm5EYn-39">
          <mxGeometry relative="1" as="geometry">
            <mxPoint x="650" y="710" as="sourcePoint" />
          </mxGeometry>
        </mxCell>
        <mxCell id="GVsS5v2347t9DQLm5EYn-42" value="" style="rounded=0;html=1;labelBackgroundColor=none;endArrow=none;edgeStyle=elbowEdgeStyle;elbow=vertical;startArrow=sysMLPackCont;startSize=12;fontFamily=Times New Roman;fontSize=13;strokeWidth=3;" edge="1" parent="1" target="GVsS5v2347t9DQLm5EYn-40">
          <mxGeometry relative="1" as="geometry">
            <mxPoint x="650" y="710" as="sourcePoint" />
            <Array as="points">
              <mxPoint x="640" y="740" />
            </Array>
          </mxGeometry>
        </mxCell>
        <mxCell id="GVsS5v2347t9DQLm5EYn-45" value="" style="endArrow=none;html=1;rounded=0;fontFamily=Times New Roman;fontSize=13;strokeWidth=3;entryX=0.5;entryY=0;entryDx=0;entryDy=0;" edge="1" parent="1" target="GVsS5v2347t9DQLm5EYn-52">
          <mxGeometry width="50" height="50" relative="1" as="geometry">
            <mxPoint x="470" y="620" as="sourcePoint" />
            <mxPoint x="910" y="640" as="targetPoint" />
            <Array as="points">
              <mxPoint x="650" y="620" />
              <mxPoint x="1050" y="620" />
            </Array>
          </mxGeometry>
        </mxCell>
        <mxCell id="GVsS5v2347t9DQLm5EYn-52" value="&amp;lt;&amp;lt;requirement&amp;gt;&amp;gt;&lt;br&gt;Pedetrian Button" style="shape=rect;html=1;whiteSpace=wrap;align=center;strokeWidth=3;fontFamily=Times New Roman;fontSize=13;" vertex="1" parent="1">
          <mxGeometry x="990" y="660" width="120" height="60" as="geometry" />
        </mxCell>
        <mxCell id="GVsS5v2347t9DQLm5EYn-54" value="&amp;lt;&amp;lt;requirement&amp;gt;&amp;gt;&lt;div&gt;Green Pedestrian Light&lt;/div&gt;" style="shape=rect;html=1;whiteSpace=wrap;align=center;fontFamily=Times New Roman;fontSize=13;strokeWidth=3;" vertex="1" parent="1">
          <mxGeometry x="900" y="780" width="120" height="60" as="geometry" />
        </mxCell>
        <mxCell id="GVsS5v2347t9DQLm5EYn-55" value="&amp;lt;&amp;lt;requirement&amp;gt;&amp;gt;&lt;div&gt;Manual Initialization&lt;/div&gt;" style="shape=rect;html=1;whiteSpace=wrap;align=center;fontFamily=Times New Roman;fontSize=13;strokeWidth=3;" vertex="1" parent="1">
          <mxGeometry x="1080" y="780" width="120" height="60" as="geometry" />
        </mxCell>
        <mxCell id="GVsS5v2347t9DQLm5EYn-56" value="" style="rounded=0;html=1;labelBackgroundColor=none;endArrow=none;edgeStyle=elbowEdgeStyle;elbow=vertical;startArrow=sysMLPackCont;startSize=12;fontFamily=Times New Roman;fontSize=13;strokeWidth=3;" edge="1" target="GVsS5v2347t9DQLm5EYn-54" parent="1">
          <mxGeometry relative="1" as="geometry">
            <mxPoint x="1050" y="720" as="sourcePoint" />
          </mxGeometry>
        </mxCell>
        <mxCell id="GVsS5v2347t9DQLm5EYn-57" value="" style="rounded=0;html=1;labelBackgroundColor=none;endArrow=none;edgeStyle=elbowEdgeStyle;elbow=vertical;startArrow=sysMLPackCont;startSize=12;fontFamily=Times New Roman;fontSize=13;strokeWidth=3;" edge="1" target="GVsS5v2347t9DQLm5EYn-55" parent="1">
          <mxGeometry relative="1" as="geometry">
            <mxPoint x="1050" y="720" as="sourcePoint" />
          </mxGeometry>
        </mxCell>
      </root>
    </mxGraphModel>
  </diagram>
</mxfile>
